<svg version="1.1" viewBox="0.0 0.0 377.9527559055118 377.9527559055118" fill="none" stroke="none" stroke-linecap="square" stroke-miterlimit="10" xmlns:xlink="http://www.w3.org/1999/xlink" xmlns="http://www.w3.org/2000/svg"><clipPath id="p.0"><path d="m0 0l377.95276 0l0 377.95276l-377.95276 0l0 -377.95276z" clip-rule="nonzero"/></clipPath><g clip-path="url(#p.0)"><path fill="#000000" fill-opacity="0.0" d="m0 0l377.95276 0l0 377.95276l-377.95276 0z" fill-rule="evenodd"/><path fill="#b7b7b7" d="m113.44882 293.78217l0 0c0 -10.323822 33.814835 -18.692932 75.52756 -18.692932l0 0c41.712723 0 75.52756 8.36911 75.52756 18.692932l0 0c0 10.3237915 -33.814835 18.692902 -75.52756 18.692902l0 0c-41.712723 0 -75.52756 -8.36911 -75.52756 -18.692902z" fill-rule="evenodd"/><path fill="#cfe2f3" d="m234.77165 146.22957l0 0c25.674728 25.674713 25.98494 66.991425 0.69291687 92.28346q-23.350555 23.350555 -45.78157 47.620636q-22.798035 -24.60968 -46.501892 -48.313553l0 0c-25.67472 -25.674713 -25.984947 -66.99144 -0.69291687 -92.28346l0 0c25.292038 -25.292038 66.60875 -24.981804 92.28346 0.69291687z" fill-rule="evenodd"/><path stroke="#000000" stroke-width="1.0" stroke-linejoin="round" stroke-linecap="butt" d="m234.77165 146.22957l0 0c25.674728 25.674713 25.98494 66.991425 0.69291687 92.28346q-23.350555 23.350555 -45.78157 47.620636q-22.798035 -24.60968 -46.501892 -48.313553l0 0c-25.67472 -25.674713 -25.984947 -66.99144 -0.69291687 -92.28346l0 0c25.292038 -25.292038 66.60875 -24.981804 92.28346 0.69291687z" fill-rule="evenodd"/><path fill="#3c78d8" d="m153.59055 188.97638l0 0c0 -17.629623 15.842773 -31.921265 35.385834 -31.921265l0 0c19.543045 0 35.38582 14.291641 35.38582 31.921265l0 0c0 17.629623 -15.842773 31.921265 -35.38582 31.921265l0 0c-19.54306 0 -35.385834 -14.291641 -35.385834 -31.921265z" fill-rule="evenodd"/></g></svg>